PathFileType        4      (X/Y/Z)      C:\Users\pc\Desktop\IMUTRC\Sujet_06\Sujet_06_velo_100.trc         
DataRate	CameraRate	NumFrames	NumMarkers	Units	OrigDataRate	OrigDataStartFrame	OrigNumFrames
60.0	60.0	4	64	mm	60.0	817	933
Frame#	Time	pHipOrigin			pRightASI			pLeftASI			pRightCSI			pLeftCSI			pRightIschialTub			pLeftIschialTub			pSacrum			pL5SpinalProcess			pL3SpinalProcess			pT12SpinalProcess			pIJ			pT4SpinalProcess			pT8SpinalProcess			pPX			pC7SpinalProcess			pTopOfHead			pRightAuricularis			pLeftAuricularis			pBackOfHead			pRightAcromion			pLeftAcromion			pRightArmLatEpicondyle			pRightArmMedEpicondyle			pLeftArmLatEpicondyle			pLeftArmMedEpicondyle			pRightUlnarStyloid			pRightRadialStyloid			pRightOlecranon			pLeftUlnarStyloid			pLeftRadialStyloid			pLeftOlecranon			pRightTopOfHand			pRightPinky			pRightBallHand			pLeftTopOfHand			pLeftPinky			pLeftBallHand			pRightGreaterTrochanter			pRightKneeLatEpicondyle			pRightKneeMedEpicondyle			pRightPatella			pLeftGreaterTrochanter			pLeftKneeLatEpicondyle			pLeftKneeMedEpicondyle			pLeftPatella			pRightTibialTub			pRightLatMalleolus			pRightMedMalleolus			pLeftTibialTub			pLeftLatMalleolus			pLeftMedMalleolus			pRightHeelFoot			pRightFirstMetatarsal			pRightFifthMetatarsal			pRightPivotFoot			pRightHeelCenter			pRightToe			pLeftHeelFoot			pLeftFirstMetatarsal			pLeftFifthMetatarsal			pLeftPivotFoot			pLeftHeelCenter			pLeftToe			
		X1	Y1	Z1	X2	Y2	Z2	X3	Y3	Z3	X4	Y4	Z4	X5	Y5	Z5	X6	Y6	Z6	X7	Y7	Z7	X8	Y8	Z8	X9	Y9	Z9	X10	Y10	Z10	X11	Y11	Z11	X12	Y12	Z12	X13	Y13	Z13	X14	Y14	Z14	X15	Y15	Z15	X16	Y16	Z16	X17	Y17	Z17	X18	Y18	Z18	X19	Y19	Z19	X20	Y20	Z20	X21	Y21	Z21	X22	Y22	Z22	X23	Y23	Z23	X24	Y24	Z24	X25	Y25	Z25	X26	Y26	Z26	X27	Y27	Z27	X28	Y28	Z28	X29	Y29	Z29	X30	Y30	Z30	X31	Y31	Z31	X32	Y32	Z32	X33	Y33	Z33	X34	Y34	Z34	X35	Y35	Z35	X36	Y36	Z36	X37	Y37	Z37	X38	Y38	Z38	X39	Y39	Z39	X40	Y40	Z40	X41	Y41	Z41	X42	Y42	Z42	X43	Y43	Z43	X44	Y44	Z44	X45	Y45	Z45	X46	Y46	Z46	X47	Y47	Z47	X48	Y48	Z48	X49	Y49	Z49	X50	Y50	Z50	X51	Y51	Z51	X52	Y52	Z52	X53	Y53	Z53	X54	Y54	Z54	X55	Y55	Z55	X56	Y56	Z56	X57	Y57	Z57	X58	Y58	Z58	X59	Y59	Z59	X60	Y60	Z60	X61	Y61	Z61	X62	Y62	Z62	X63	Y63	Z63	X64	Y64	Z64	
817	13.6	0.0	1250.03612	7.654263665882883E-14	30.245900000000013	1329.28802	130.29983000000007	86.52623999999999	1339.62523	-93.03484999999993	-1.9142999999999868	1389.52458	106.30731000000009	45.687889999999996	1398.33034	-81.93191999999992	-59.98130999999999	1199.88153	32.67067000000008	-36.24403000000001	1204.34822	-61.38512999999992	-56.15272	1270.32767	-13.272459999999915	-25.1411	1360.81012	-1.7866799999999137	19.90869	1470.56316	11.230540000000088	63.17181	1570.23424	22.333470000000087	303.60755	1657.78143	83.33574000000006	174.58391	1732.69427	47.985050000000086	116.64451	1663.65195	34.712590000000084	228.31185	1560.15227	66.36231000000006	217.08131	1779.78598	59.59845000000008	496.44109	1805.43756	54.23842000000005	401.36433	1786.80507	136.29797000000005	386.30519	1792.29272	-7.529569999999937	385.41185	1845.63781	67.38326000000008	192.06783000000001	1757.06965	232.3956900000001	268.25686	1744.43529	-112.68829999999991	333.08772000000005	1494.04521	250.77294000000006	321.09146	1482.55942	189.89829000000006	418.84824	1502.21288	-158.50380999999996	393.4519	1475.15747	-107.58350999999996	520.68886	1320.0994	242.35003000000003	543.40518	1350.47291	206.87172000000004	313.4342700000001	1475.79557	240.43574000000007	621.25327	1348.30338	-150.97424	630.31428	1366.68063	-103.11680999999999	399.57765	1482.55942	-159.01428999999996	694.76229	1306.31646	194.4926	624.06091	1290.87446	232.26807	557.82622	1310.91077	224.61088000000004	785.11712	1363.87299	-73.89187000000001	727.30534	1343.45382	-127.74744	657.75254	1342.43286	-128.38554	-1.9142999999999821	1222.08738	145.86945000000009	320.58098	1021.9795	148.67709000000002	333.08772	1030.01955	76.31665000000001	346.10495	1062.30736	117.41023000000003	48.62314999999999	1230.12742	-141.91323999999992	294.2913	945.15237	-90.73768999999999	287.14459	944.64189	-17.35629999999998	319.4324	974.24969	-48.62314999999999	336.53346	976.67447	114.60260000000001	21.822990000000015	776.05611	125.57790000000004	27.183020000000006	773.24848	66.74516000000004	338.57538	914.39599	-50.282209999999985	257.40917	554.89097	-109.62542	253.0701	551.06237	-50.79268999999999	-65.34134999999999	761.12459	88.56815000000006	22.46109000000001	626.23045	75.16807000000004	14.803900000000018	634.78097	150.59139000000002	30.245900000000013	612.31989	115.11308000000004	-43.77359999999999	730.8787	94.18343000000004	70.82900000000001	548.89284	126.34362000000002	201.63931	479.34004	-85.12242	355.80405	445.90364	-50.409830000000014	355.67643	451.00844	-126.59886000000002	376.86132	443.98935	-87.80243000000002	238.64906	473.72476	-85.50528	451.51892	428.80259	-88.95101000000003	
818	13.617	0.0	1250.03612	7.654263665882883E-14	29.735420000000016	1329.41564	130.29983000000007	87.03671999999999	1339.36999	-92.77960999999993	-2.169539999999987	1389.6522	106.17969000000008	46.19836999999999	1398.20272	-81.93191999999992	-60.236549999999994	1200.00915	32.54305000000008	-36.11641000000001	1204.2206	-61.51274999999992	-56.0251	1270.45529	-13.527699999999914	-25.01348	1360.81012	-2.0419199999999136	20.03631	1470.56316	11.102920000000088	63.29943	1570.23424	22.20585000000009	303.73517	1657.78143	83.84622000000006	174.71153	1732.69427	47.985050000000086	116.89975	1663.65195	34.712590000000084	228.43947	1560.15227	66.61754000000008	217.20893	1779.78598	59.59845000000008	496.69633	1805.30994	55.38700000000005	401.23671	1786.54983	137.06368000000006	386.68805	1792.29272	-6.763849999999937	385.53947	1845.51019	68.14898000000007	191.42973000000003	1756.94203	232.5233100000001	269.40544	1744.56291	-112.05019999999992	333.5982000000001	1494.55569	249.75198000000006	321.9848	1483.58038	188.74971000000005	418.97586	1501.44716	-158.63142999999997	392.8138	1474.13652	-108.22160999999996	520.81648	1320.48226	241.07384000000002	543.66042	1350.72815	205.46791000000002	313.94475000000006	1476.68891	239.28716000000006	620.87041	1347.28242	-151.73996	630.05904	1365.65967	-103.88252999999999	399.32241	1481.79371	-159.26952999999997	694.63467	1304.91264	193.2164	623.80567	1290.23636	230.99187	557.82622	1311.03839	223.33468000000002	784.86188	1363.23489	-74.65759000000001	727.0501	1342.56048	-128.51316	657.4973	1341.41191	-129.15126	-0.7657199999999821	1223.61881	145.86945000000009	332.70487	1042.01581	148.03899000000004	344.44589	1050.56634	75.67855000000003	355.80405	1083.61987	116.51689000000003	46.45360999999998	1228.59599	-142.42371999999992	272.72355	927.15798	-96.73581999999998	266.5978	926.51988	-23.226809999999976	300.41705	954.08576	-54.74889999999998	348.01924	997.09364	113.70926000000001	34.32973000000001	795.19909	126.59886000000004	39.179280000000006	792.51907	67.63850000000004	318.15621	896.27398	-57.173679999999976	237.37286	535.87562	-111.92258	234.43761	532.42988	-52.962219999999995	-52.57935999999999	776.05611	89.58911000000005	41.22120000000001	645.37342	76.44427000000005	33.181150000000024	653.66871	151.86758000000003	49.64411000000001	631.84572	116.38927000000004	-29.60779999999999	746.95879	95.33200000000004	93.03485000000002	570.46059	127.74744000000001	180.07156	461.98374	-85.50528	333.34296	424.33589	-51.430790000000016	332.70487	428.16449	-127.74744000000001	354.14499	421.1454	-89.07863000000002	216.95369	455.21989	-86.14338	428.16449	403.66148	-90.48245000000003	
819	13.633	0.0	1250.03612	7.654263665882883E-14	29.480180000000015	1329.54326	130.29983000000007	87.54719999999999	1339.11475	-92.52436999999993	-2.169539999999987	1389.90744	105.92445000000008	46.70884999999999	1397.94748	-81.93191999999992	-60.491789999999995	1200.26439	32.41543000000008	-35.98879000000001	1204.2206	-61.64036999999992	-56.0251	1270.45529	-13.655319999999914	-24.75824	1360.81012	-2.2971599999999133	20.41917	1470.56316	10.84768000000009	63.80991	1570.10662	21.82299000000009	304.24565	1657.52619	83.71860000000005	175.47725	1732.43903	47.729810000000086	117.41023	1663.52433	34.32973000000008	228.94995	1559.89703	66.61754000000008	217.97465	1779.53074	59.34322000000008	497.46205	1804.79946	56.02510000000005	401.61957	1786.03935	137.31892000000005	387.70901	1791.90986	-6.636229999999937	386.30519	1845.12733	68.40422000000007	191.30211000000003	1756.81441	232.26807000000008	271.06449	1744.30767	-111.66733999999991	334.49154000000004	1495.19379	248.47579000000005	323.38862	1484.72896	187.34589000000005	419.35872	1500.29858	-159.26952999999997	392.55856	1472.60508	-109.37017999999996	521.19934	1320.35464	239.67002000000002	544.1709	1350.60053	204.06409000000002	315.09333000000004	1477.58225	238.01096000000007	620.74279	1345.75098	-152.88854	629.93142	1364.00061	-105.03110999999998	399.45003	1480.38989	-160.16286999999997	694.63467	1302.61548	191.94021	623.55043	1288.96016	229.71567	557.95384	1310.52791	221.93086000000002	784.73426	1361.83108	-75.55093000000001	727.0501	1341.15667	-129.53412	657.4973	1339.88047	-130.17221	0.6381000000000179	1225.02263	145.74183000000008	343.29731	1061.54164	146.37993000000003	354.01737	1070.34741	73.89187000000003	363.8441	1104.29428	114.47498000000003	44.53931999999998	1227.83027	-142.93419999999992	252.55962	912.60932	-103.49966999999997	247.07197	911.2055	-29.990659999999973	282.16742	937.11232	-61.512749999999976	358.61169	1017.25757	111.53972000000002	48.75077000000002	809.62012	126.98172000000004	53.08984000000001	807.32297	68.02136000000004	298.11989	881.08722	-64.83086999999999	214.01843	520.68886	-114.6026	212.74224	517.7536	-55.64224	-37.13736999999998	784.47902	90.35483000000005	65.34135000000002	660.30494	77.72047000000003	56.79082000000002	668.60023	153.27140000000003	74.65759000000001	647.67058	117.79309000000003	-12.251499999999988	757.04076	96.09772000000004	122.13217000000002	589.34832	129.53412	154.67522	449.09414	-86.14337999999998	306.79804	406.21388	-53.08984000000001	305.39422	408.51104	-129.53412	326.96197	401.36433	-90.86531000000001	191.30211	440.92647	-87.03672	400.34337	380.94516	-92.77961000000002	
820	13.65	0.0	1250.03612	7.654263665882883E-14	29.224940000000014	1329.67088	130.1722100000001	88.05766999999999	1338.73189	-92.52436999999993	-2.169539999999987	1390.16268	105.66921000000009	47.34694999999999	1397.69225	-82.18715999999992	-60.619409999999995	1200.39201	32.28781000000008	-35.86117000000001	1204.2206	-61.64036999999992	-55.89748	1270.58291	-13.910559999999915	-24.50301	1360.81012	-2.5523999999999134	20.92965	1470.56316	10.464830000000088	64.57563	1570.10662	21.44013000000009	305.13898	1656.8881	83.20812000000005	176.49821	1732.18379	47.091710000000084	118.30357	1663.26909	33.81925000000008	229.58805	1559.51417	66.10707000000006	218.99561	1779.14788	58.70512000000008	498.61063	1804.03375	56.02510000000005	402.51291	1785.40125	136.93606000000005	389.11282	1791.39938	-7.019089999999938	387.45377	1844.48923	68.02136000000007	191.81259000000003	1756.43155	231.75759000000008	272.85117	1743.92481	-111.79495999999992	335.51250000000005	1495.57665	247.32721000000006	324.92006	1485.36706	186.06969000000007	419.8692	1498.89476	-160.29048999999998	392.55856	1470.94602	-110.77399999999996	521.83744	1319.97178	238.13858000000002	544.93662	1350.21767	202.66027000000003	316.36953000000005	1478.09273	236.73476000000005	620.99803	1344.21954	-154.16474	630.18666	1362.34156	-106.17968999999998	399.70527	1478.98607	-161.31144999999998	694.88991	1300.31832	190.53639	623.67805	1287.55634	228.31185	558.3367	1309.88981	220.52705000000003	784.86188	1360.55488	-76.57189000000001	727.17772	1339.62523	-130.55507	657.62492	1338.22141	-131.32079	1.9143000000000177	1226.55407	145.6142100000001	351.72022	1079.15318	144.08277	361.41932	1088.08657	71.46710000000003	370.09747	1122.54392	111.92258000000002	43.007879999999986	1227.06455	-143.3170599999999	236.09666	902.01687	-109.11493999999998	231.24711	900.10258	-35.60592999999997	267.2359	924.7332	-67.12801999999998	368.18317	1035.12434	108.85970000000002	64.70325000000001	818.42589	127.10934000000005	68.40422000000001	816.38397	68.14898000000004	281.65694	868.83572	-71.08423999999997	190.15352999999996	509.84117	-116.77213	190.15353	507.16116	-57.81177999999999	-19.270589999999988	787.15904	90.73769000000004	92.14151000000001	670.89738	78.74143000000002	83.33574000000002	679.06505	154.16474000000002	102.47871000000002	659.28398	118.94167000000003	7.6571900000000115	761.63507	96.60820000000004	154.29236000000003	604.6627	130.93793	128.51316	441.18171	-86.52623999999999	279.10454	392.30332	-54.62128000000001	276.67977	393.57952	-130.93793	298.50275	386.17757	-92.52437000000002	164.62957	431.4826	-87.67480999999998	370.86319	362.44028	-95.07676000000001	
